<svg width="66" height="66" viewBox="0 0 66 66" fill="none" xmlns="http://www.w3.org/2000/svg">
<path d="M8.25 14.4375C7.70299 14.4375 7.17839 14.6548 6.79159 15.0416C6.4048 15.4284 6.1875 15.953 6.1875 16.5C6.1875 17.047 6.4048 17.5716 6.79159 17.9584C7.17839 18.3452 7.70299 18.5625 8.25 18.5625H12.8287L18.2407 40.2187C18.7007 42.0544 20.3445 43.3125 22.2358 43.3125H47.9552C49.8176 43.3125 51.3996 42.075 51.8884 40.2806L57.2344 20.625H52.9155L47.9531 39.1875H22.2337L16.8238 17.5312C16.6003 16.6428 16.0852 15.855 15.3608 15.2941C14.6365 14.7332 13.7449 14.4315 12.8287 14.4375H8.25ZM45.375 43.3125C41.9822 43.3125 39.1875 46.1072 39.1875 49.5C39.1875 52.8928 41.9822 55.6875 45.375 55.6875C48.7678 55.6875 51.5625 52.8928 51.5625 49.5C51.5625 46.1072 48.7678 43.3125 45.375 43.3125ZM26.8125 43.3125C23.4197 43.3125 20.625 46.1072 20.625 49.5C20.625 52.8928 23.4197 55.6875 26.8125 55.6875C30.2053 55.6875 33 52.8928 33 49.5C33 46.1072 30.2053 43.3125 26.8125 43.3125ZM33 14.4375V24.75H26.8125L35.0625 33L43.3125 24.75H37.125V14.4375H33ZM26.8125 47.4375C27.9757 47.4375 28.875 48.3367 28.875 49.5C28.875 50.6632 27.9757 51.5625 26.8125 51.5625C25.6493 51.5625 24.75 50.6632 24.75 49.5C24.75 48.3367 25.6493 47.4375 26.8125 47.4375ZM45.375 47.4375C46.5382 47.4375 47.4375 48.3367 47.4375 49.5C47.4375 50.6632 46.5382 51.5625 45.375 51.5625C44.2118 51.5625 43.3125 50.6632 43.3125 49.5C43.3125 48.3367 44.2118 47.4375 45.375 47.4375Z" fill="black"/>
</svg>
